<svg width="1216" height="808" viewBox="0 0 1216 808" fill="none" xmlns="http://www.w3.org/2000/svg">
<mask id="mask0_415_6858" style="mask-type:alpha" maskUnits="userSpaceOnUse" x="0" y="41" width="1216" height="726">
<rect y="41" width="1216" height="725.8" fill="url(#paint0_radial_415_6858)"/>
</mask>
<g mask="url(#mask0_415_6858)">
<rect x="156.433" y="53.0334" width="100.067" height="100.067" stroke="#B1BCC2" stroke-width="1.26667"/>
<rect x="256.5" y="53.0334" width="100.067" height="100.067" stroke="#B1BCC2" stroke-width="1.26667"/>
<rect x="356.567" y="53.0334" width="100.067" height="100.067" stroke="#B1BCC2" stroke-width="1.26667"/>
<rect x="456.634" y="53.0334" width="100.067" height="100.067" stroke="#B1BCC2" stroke-width="1.26667"/>
<rect x="556.7" y="53.0334" width="100.067" height="100.067" stroke="#B1BCC2" stroke-width="1.26667"/>
<rect x="656.767" y="53.0334" width="100.067" height="100.067" stroke="#B1BCC2" stroke-width="1.26667"/>
<rect x="756.833" y="53.0334" width="100.067" height="100.067" fill="white" fill-opacity="0.25" stroke="#B1BCC2" stroke-width="1.26667"/>
<rect x="856.9" y="53.0334" width="100.067" height="100.067" stroke="#B1BCC2" stroke-width="1.26667"/>
<rect x="956.967" y="53.0334" width="100.067" height="100.067" stroke="#B1BCC2" stroke-width="1.26667"/>
<rect x="156.434" y="153.1" width="100.067" height="100.067" stroke="#B1BCC2" stroke-width="1.26667"/>
<rect x="256.5" y="153.1" width="100.067" height="100.067" stroke="#B1BCC2" stroke-width="1.26667"/>
<rect x="356.567" y="153.1" width="100.067" height="100.067" stroke="#B1BCC2" stroke-width="1.26667"/>
<rect x="456.634" y="153.1" width="100.067" height="100.067" stroke="#B1BCC2" stroke-width="1.26667"/>
<rect x="556.7" y="153.1" width="100.067" height="100.067" stroke="#B1BCC2" stroke-width="1.26667"/>
<rect x="656.767" y="153.1" width="100.067" height="100.067" stroke="#B1BCC2" stroke-width="1.26667"/>
<rect x="756.833" y="153.1" width="100.067" height="100.067" stroke="#B1BCC2" stroke-width="1.26667"/>
<rect x="856.9" y="153.1" width="100.067" height="100.067" stroke="#B1BCC2" stroke-width="1.26667"/>
<rect x="956.967" y="153.1" width="100.067" height="100.067" stroke="#B1BCC2" stroke-width="1.26667"/>
<rect x="156.434" y="253.167" width="100.067" height="100.067" stroke="#B1BCC2" stroke-width="1.26667"/>
<rect x="256.5" y="253.167" width="100.067" height="100.067" stroke="#B1BCC2" stroke-width="1.26667"/>
<rect x="356.567" y="253.167" width="100.067" height="100.067" stroke="#B1BCC2" stroke-width="1.26667"/>
<rect x="456.634" y="253.167" width="100.067" height="100.067" stroke="#B1BCC2" stroke-width="1.26667"/>
<rect x="556.7" y="253.167" width="100.067" height="100.067" fill="white" fill-opacity="0.25" stroke="#B1BCC2" stroke-width="1.26667"/>
<rect x="656.767" y="253.167" width="100.067" height="100.067" stroke="#B1BCC2" stroke-width="1.26667"/>
<rect x="756.833" y="253.167" width="100.067" height="100.067" fill="white" fill-opacity="0.25" stroke="#B1BCC2" stroke-width="1.26667"/>
<rect x="856.9" y="253.167" width="100.067" height="100.067" stroke="#B1BCC2" stroke-width="1.26667"/>
<rect x="956.967" y="253.167" width="100.067" height="100.067" stroke="#B1BCC2" stroke-width="1.26667"/>
<rect x="156.434" y="353.233" width="100.067" height="100.067" stroke="#B1BCC2" stroke-width="1.26667"/>
<rect x="256.5" y="353.233" width="100.067" height="100.067" stroke="#B1BCC2" stroke-width="1.26667"/>
<rect x="356.567" y="353.233" width="100.067" height="100.067" stroke="#B1BCC2" stroke-width="1.26667"/>
<rect x="456.634" y="353.233" width="100.067" height="100.067" stroke="#B1BCC2" stroke-width="1.26667"/>
<rect x="556.7" y="353.233" width="100.067" height="100.067" stroke="#B1BCC2" stroke-width="1.26667"/>
<rect x="656.767" y="353.233" width="100.067" height="100.067" stroke="#B1BCC2" stroke-width="1.26667"/>
<rect x="756.833" y="353.233" width="100.067" height="100.067" stroke="#B1BCC2" stroke-width="1.26667"/>
<rect x="856.9" y="353.233" width="100.067" height="100.067" stroke="#B1BCC2" stroke-width="1.26667"/>
<rect x="956.967" y="353.233" width="100.067" height="100.067" stroke="#B1BCC2" stroke-width="1.26667"/>
<rect x="156.434" y="453.3" width="100.067" height="100.067" stroke="#B1BCC2" stroke-width="1.26667"/>
<rect x="256.5" y="453.3" width="100.067" height="100.067" stroke="#B1BCC2" stroke-width="1.26667"/>
<rect x="356.567" y="453.3" width="100.067" height="100.067" stroke="#B1BCC2" stroke-width="1.26667"/>
<rect x="456.634" y="453.3" width="100.067" height="100.067" fill="white" fill-opacity="0.25" stroke="#B1BCC2" stroke-width="1.26667"/>
<rect x="556.7" y="453.3" width="100.067" height="100.067" stroke="#B1BCC2" stroke-width="1.26667"/>
<rect x="656.767" y="453.3" width="100.067" height="100.067" stroke="#B1BCC2" stroke-width="1.26667"/>
<rect x="756.833" y="453.3" width="100.067" height="100.067" stroke="#B1BCC2" stroke-width="1.26667"/>
<rect x="856.9" y="453.3" width="100.067" height="100.067" stroke="#B1BCC2" stroke-width="1.26667"/>
<rect x="956.967" y="453.3" width="100.067" height="100.067" stroke="#B1BCC2" stroke-width="1.26667"/>
<rect x="156.434" y="553.367" width="100.067" height="100.067" stroke="#B1BCC2" stroke-width="1.26667"/>
<rect x="256.5" y="553.367" width="100.067" height="100.067" stroke="#B1BCC2" stroke-width="1.26667"/>
<rect x="356.567" y="553.367" width="100.067" height="100.067" stroke="#B1BCC2" stroke-width="1.26667"/>
<rect x="456.634" y="553.367" width="100.067" height="100.067" stroke="#B1BCC2" stroke-width="1.26667"/>
<rect x="556.7" y="553.367" width="100.067" height="100.067" stroke="#B1BCC2" stroke-width="1.26667"/>
<rect x="656.767" y="553.367" width="100.067" height="100.067" stroke="#B1BCC2" stroke-width="1.26667"/>
<rect x="756.833" y="553.367" width="100.067" height="100.067" stroke="#B1BCC2" stroke-width="1.26667"/>
<rect x="856.9" y="553.367" width="100.067" height="100.067" stroke="#B1BCC2" stroke-width="1.26667"/>
<rect x="956.967" y="553.367" width="100.067" height="100.067" stroke="#B1BCC2" stroke-width="1.26667"/>
<rect x="156.434" y="653.433" width="100.067" height="100.067" stroke="#B1BCC2" stroke-width="1.26667"/>
<rect x="256.5" y="653.433" width="100.067" height="100.067" stroke="#B1BCC2" stroke-width="1.26667"/>
<rect x="356.567" y="653.433" width="100.067" height="100.067" stroke="#B1BCC2" stroke-width="1.26667"/>
<rect x="456.634" y="653.433" width="100.067" height="100.067" stroke="#B1BCC2" stroke-width="1.26667"/>
<rect x="556.7" y="653.433" width="100.067" height="100.067" stroke="#B1BCC2" stroke-width="1.26667"/>
<rect x="656.767" y="653.433" width="100.067" height="100.067" stroke="#B1BCC2" stroke-width="1.26667"/>
<rect x="756.833" y="653.433" width="100.067" height="100.067" stroke="#B1BCC2" stroke-width="1.26667"/>
<rect x="856.9" y="653.433" width="100.067" height="100.067" stroke="#B1BCC2" stroke-width="1.26667"/>
<rect x="956.967" y="653.433" width="100.067" height="100.067" stroke="#B1BCC2" stroke-width="1.26667"/>
</g>
<defs>
<filter id="filter0_f_415_6858" x="203.933" y="0.46669" width="806.867" height="806.867" filterUnits="userSpaceOnUse" color-interpolation-filters="sRGB">
<feFlood flood-opacity="0" result="BackgroundImageFix"/>
<feBlend mode="normal" in="SourceGraphic" in2="BackgroundImageFix" result="shape"/>
<feGaussianBlur stdDeviation="126.667" result="effect1_foregroundBlur_415_6858"/>
</filter>
<radialGradient id="paint0_radial_415_6858" cx="0" cy="0" r="1" gradientUnits="userSpaceOnUse" gradientTransform="translate(608 403.9) rotate(90) scale(447.374 749.527)">
<stop stop-color="#D9D9D9" stop-opacity="0.2"/>
<stop offset="0.802083" stop-color="#D9D9D9" stop-opacity="0"/>
</radialGradient>
</defs>
</svg>
