<svg width="1652" height="355" viewBox="0 0 1652 355" fill="none" xmlns="http://www.w3.org/2000/svg">
<path d="M270 15H70C31.3401 15 0 46.3401 0 85V285C0 323.66 31.3401 355 70 355H270C308.66 355 340 323.66 340 285V85C340 46.3401 308.66 15 270 15Z" fill="url(#paint0_linear_1_5)"/>
<path opacity="0.754065" d="M237.612 153.158C234.726 150.282 230.051 150.28 227.165 153.158C224.278 156.036 224.278 160.699 227.165 163.577C234.94 171.329 239.223 181.601 239.223 192.499C239.223 203.397 234.94 213.67 227.165 221.425C224.278 224.3 224.278 228.966 227.165 231.842C228.608 233.28 230.497 234 232.389 234C234.278 234 236.169 233.28 237.612 231.842C248.18 221.305 254 207.334 254 192.499C254 177.665 248.18 163.695 237.612 153.158Z" fill="black" fill-opacity="0.200482"/>
<path opacity="0.754065" d="M267.333 128.159C264.51 125.28 259.939 125.28 257.117 128.159C254.294 131.039 254.294 135.709 257.117 138.587C285.704 167.763 285.704 215.238 257.117 244.414C254.294 247.292 254.294 251.962 257.117 254.84C258.528 256.28 260.376 257 262.225 257C264.074 257 265.922 256.28 267.333 254.837C301.556 219.913 301.556 163.084 267.333 128.159Z" fill="#131514" fill-opacity="0.250565"/>
<g filter="url(#filter0_d_1_5)">
<path d="M196.5 182H55.5C48.0442 182 42 188.044 42 195.5C42 202.956 48.0442 209 55.5 209H196.5C203.956 209 210 202.956 210 195.5C210 188.044 203.956 182 196.5 182Z" fill="black"/>
</g>
<path d="M196.5 182H55.5C48.0442 182 42 188.044 42 195.5C42 202.956 48.0442 209 55.5 209H196.5C203.956 209 210 202.956 210 195.5C210 188.044 203.956 182 196.5 182Z" fill="white"/>
<g filter="url(#filter1_d_1_5)">
<path d="M170.5 125H53.5C46.5964 125 41 130.596 41 137.5C41 144.404 46.5964 150 53.5 150H170.5C177.404 150 183 144.404 183 137.5C183 130.596 177.404 125 170.5 125Z" fill="black"/>
</g>
<path d="M170.5 125H53.5C46.5964 125 41 130.596 41 137.5C41 144.404 46.5964 150 53.5 150H170.5C177.404 150 183 144.404 183 137.5C183 130.596 177.404 125 170.5 125Z" fill="white"/>
<g filter="url(#filter2_d_1_5)">
<path d="M133.5 241H53.5C46.5964 241 41 246.596 41 253.5C41 260.404 46.5964 266 53.5 266H133.5C140.404 266 146 260.404 146 253.5C146 246.596 140.404 241 133.5 241Z" fill="black"/>
</g>
<path d="M133.5 241H53.5C46.5964 241 41 246.596 41 253.5C41 260.404 46.5964 266 53.5 266H133.5C140.404 266 146 260.404 146 253.5C146 246.596 140.404 241 133.5 241Z" fill="white"/>
<path d="M509.975 299.13C521.972 299.13 532.69 297.065 542.13 292.935C551.57 288.805 559.338 283.643 565.435 277.448C571.532 271.253 575.957 264.812 578.71 258.125L542.425 246.915C535.345 259.895 524.627 266.385 510.27 266.385C502.01 266.385 494.979 264.664 489.177 261.223C483.376 257.781 479.049 253.602 476.198 248.685C473.346 243.768 471.92 239.048 471.92 234.525L581.955 233.345C582.152 231.182 582.25 227.937 582.25 223.61C582.25 205.91 578.858 191.258 572.073 179.655C565.288 168.052 556.388 159.595 545.375 154.285C534.362 148.975 522.365 146.32 509.385 146.32C495.618 146.32 482.884 149.122 471.182 154.727C459.481 160.332 449.992 168.937 442.715 180.54C435.438 192.143 431.8 206.303 431.8 223.02C431.8 236.983 435.045 249.767 441.535 261.37C448.025 272.973 457.219 282.168 469.117 288.953C481.016 295.738 494.635 299.13 509.975 299.13ZM471.92 205.32C472.707 197.453 476.296 190.963 482.688 185.85C489.079 180.737 496.012 177.983 503.485 177.59C510.762 177.197 517.301 178.278 523.102 180.835C528.904 183.392 533.378 186.882 536.525 191.307C539.672 195.732 541.245 200.305 541.245 205.025L471.92 205.32ZM669.955 299.13C673.888 299.13 677.674 298.737 681.312 297.95C684.951 297.163 688.589 296.082 692.227 294.705C695.866 293.328 698.177 292.443 699.16 292.05L688.245 258.42C684.508 260.78 680.083 261.96 674.97 261.96C669.463 261.96 665.333 260.288 662.58 256.945C660.613 254.585 659.335 251.684 658.745 248.242C658.155 244.801 657.86 237.967 657.86 227.74V184.67H692.67V150.745H658.155V107.085H620.69V141.01C620.69 144.55 619.903 147.058 618.33 148.533C616.757 150.007 613.807 150.745 609.48 150.745H593.55V184.67H618.92V252.225C618.92 262.058 621.919 271.498 627.917 280.545C633.916 289.592 643.012 295.295 655.205 297.655C659.925 298.638 664.842 299.13 669.955 299.13ZM764.445 296.475V213.875C764.445 202.665 767.395 194.553 773.295 189.538C779.195 184.523 785.587 182.015 792.47 182.015C799.55 182.015 805.745 184.326 811.055 188.947C816.365 193.569 819.02 201.878 819.02 213.875V296.475H861.5V208.565C861.5 192.438 857.517 178.131 849.552 165.643C841.587 153.154 826.985 146.91 805.745 146.91C799.255 146.91 793.109 147.943 787.307 150.008C781.506 152.073 776.638 154.531 772.705 157.383C768.772 160.234 766.313 162.742 765.33 164.905V81.42L722.26 81.125L722.555 296.475H764.445ZM959.825 299.13C971.822 299.13 982.54 297.065 991.98 292.935C1001.42 288.805 1009.19 283.643 1015.28 277.448C1021.38 271.253 1025.81 264.812 1028.56 258.125L992.275 246.915C985.195 259.895 974.477 266.385 960.12 266.385C951.86 266.385 944.829 264.664 939.028 261.223C933.226 257.781 928.899 253.602 926.047 248.685C923.196 243.768 921.77 239.048 921.77 234.525L1031.81 233.345C1032 231.182 1032.1 227.937 1032.1 223.61C1032.1 205.91 1028.71 191.258 1021.92 179.655C1015.14 168.052 1006.24 159.595 995.225 154.285C984.212 148.975 972.215 146.32 959.235 146.32C945.468 146.32 932.734 149.122 921.032 154.727C909.331 160.332 899.842 168.937 892.565 180.54C885.288 192.143 881.65 206.303 881.65 223.02C881.65 236.983 884.895 249.767 891.385 261.37C897.875 272.973 907.069 282.168 918.968 288.953C930.866 295.738 944.485 299.13 959.825 299.13ZM921.77 205.32C922.557 197.453 926.146 190.963 932.537 185.85C938.929 180.737 945.862 177.983 953.335 177.59C960.612 177.197 967.151 178.278 972.953 180.835C978.754 183.392 983.228 186.882 986.375 191.307C989.522 195.732 991.095 200.305 991.095 205.025L921.77 205.32ZM1093.55 296.18V251.93C1093.55 238.557 1093.85 228.478 1094.44 221.693C1095.03 214.908 1096.11 209.499 1097.68 205.467C1099.25 201.436 1101.81 197.453 1105.35 193.52C1111.25 186.833 1119.41 183.49 1129.83 183.49C1136.32 183.49 1142.32 184.768 1147.83 187.325L1158.45 152.22C1152.55 148.68 1144.78 146.91 1135.15 146.91C1129.24 146.91 1124.13 147.697 1119.81 149.27C1112.73 151.827 1107.17 154.973 1103.14 158.71C1099.11 162.447 1095.91 167.265 1093.55 173.165V151.63H1055.2V295.885L1093.55 296.18ZM1164.44 353.41L1203.08 353.115L1202.79 283.495C1213.8 294.705 1227.47 300.31 1243.8 300.31C1254.42 300.31 1265.08 297.704 1275.8 292.492C1286.52 287.281 1295.52 278.824 1302.8 267.122C1310.07 255.421 1313.71 240.523 1313.71 222.43C1313.71 206.697 1310.32 192.979 1303.53 181.277C1296.75 169.576 1288.09 160.677 1277.57 154.58C1267.05 148.483 1256.48 145.435 1245.86 145.435C1226.19 145.435 1211.64 152.22 1202.2 165.79L1200.72 150.45L1163.85 150.155L1164.44 353.41ZM1239.07 264.91C1227.47 264.91 1218.43 261.026 1211.94 253.258C1205.45 245.489 1202.2 235.508 1202.2 223.315C1202.2 212.695 1205.05 203.157 1210.76 194.7C1216.46 186.243 1225.8 182.015 1238.78 182.015C1245.66 182.015 1251.86 183.883 1257.36 187.62C1262.87 191.357 1267.2 196.372 1270.34 202.665C1273.49 208.958 1275.06 215.743 1275.06 223.02C1275.06 230.887 1273.44 238.016 1270.2 244.408C1266.95 250.799 1262.58 255.814 1257.07 259.453C1251.56 263.091 1245.56 264.91 1239.07 264.91ZM1386.07 300.9C1395.71 300.9 1403.92 298.786 1410.71 294.557C1417.49 290.329 1422.95 285.363 1427.08 279.66L1428.26 296.475H1466.9L1466.02 199.715C1466.02 188.898 1462.87 179.163 1456.58 170.51C1450.29 161.857 1440.65 155.072 1427.67 150.155C1419.41 147.205 1410.85 145.73 1402.01 145.73C1389.03 145.73 1377.52 148.483 1367.49 153.99C1357.85 159.497 1350.58 165.741 1345.66 172.723C1340.74 179.704 1337.7 186.735 1336.52 193.815L1371.03 201.19C1372.41 193.52 1375.46 187.669 1380.18 183.637C1384.9 179.606 1390.79 177.59 1397.88 177.59C1400.63 177.59 1403.97 178.082 1407.91 179.065C1413.61 180.638 1417.69 182.949 1420.15 185.997C1422.61 189.046 1423.83 192.34 1423.83 195.88C1423.83 197.65 1423.54 199.371 1422.95 201.042C1422.36 202.714 1421.67 203.845 1420.89 204.435C1419.51 205.615 1416.71 206.598 1412.48 207.385C1408.25 208.172 1402.3 209.057 1394.63 210.04L1385.19 211.22C1369.26 213.187 1356.72 217.808 1347.58 225.085C1338.43 232.362 1333.86 242.687 1333.86 256.06C1333.86 258.617 1333.96 260.583 1334.16 261.96C1335.73 274.153 1340.94 283.692 1349.79 290.575C1358.64 297.458 1370.73 300.9 1386.07 300.9ZM1393.16 271.105C1386.86 271.105 1381.9 269.63 1378.26 266.68C1374.62 263.73 1372.8 259.502 1372.8 253.995C1372.8 249.668 1373.93 246.423 1376.19 244.26C1378.45 242.097 1381.5 240.72 1385.34 240.13C1389.17 239.54 1394.83 239.048 1402.3 238.655C1404.27 238.458 1407.86 238.212 1413.07 237.917C1418.28 237.622 1423.15 237.082 1427.67 236.295C1427.87 237.278 1427.96 238.753 1427.96 240.72C1427.96 247.8 1425.8 253.995 1421.47 259.305C1417.15 264.615 1410.95 268.155 1402.89 269.925C1398.17 270.712 1394.93 271.105 1393.16 271.105ZM1557.85 301.195C1577.52 301.195 1592.08 294.41 1601.52 280.84L1602.99 296.18L1639.86 296.475L1639.28 81.125L1600.63 81.42L1600.92 163.135C1589.91 151.925 1576.24 146.32 1559.92 146.32C1549.3 146.32 1538.63 148.926 1527.91 154.137C1517.19 159.349 1508.2 167.806 1500.92 179.508C1493.64 191.209 1490.01 206.107 1490.01 224.2C1490.01 239.933 1493.4 253.651 1500.18 265.353C1506.97 277.054 1515.62 285.953 1526.14 292.05C1536.66 298.147 1547.23 301.195 1557.85 301.195ZM1564.93 264.615C1558.05 264.615 1551.86 262.747 1546.35 259.01C1540.84 255.273 1536.52 250.258 1533.37 243.965C1530.22 237.672 1528.65 230.887 1528.65 223.61C1528.65 215.743 1530.27 208.614 1533.52 202.223C1536.76 195.831 1541.14 190.816 1546.64 187.178C1552.15 183.539 1558.15 181.72 1564.64 181.72C1576.24 181.72 1585.29 185.604 1591.78 193.372C1598.27 201.141 1601.52 211.122 1601.52 223.315C1601.52 233.935 1598.66 243.473 1592.96 251.93C1587.26 260.387 1577.91 264.615 1564.93 264.615Z" fill="#44B392"/>
<defs>
<filter id="filter0_d_1_5" x="34" y="182" width="184" height="43" filterUnits="userSpaceOnUse" color-interpolation-filters="sRGB">
<feFlood flood-opacity="0" result="BackgroundImageFix"/>
<feColorMatrix in="SourceAlpha" type="matrix" values="0 0 0 0 0 0 0 0 0 0 0 0 0 0 0 0 0 0 127 0" result="hardAlpha"/>
<feOffset dy="8"/>
<feGaussianBlur stdDeviation="4"/>
<feColorMatrix type="matrix" values="0 0 0 0 0 0 0 0 0 0 0 0 0 0 0 0 0 0 0.0568182 0"/>
<feBlend mode="normal" in2="BackgroundImageFix" result="effect1_dropShadow_1_5"/>
<feBlend mode="normal" in="SourceGraphic" in2="effect1_dropShadow_1_5" result="shape"/>
</filter>
<filter id="filter1_d_1_5" x="33" y="125" width="158" height="41" filterUnits="userSpaceOnUse" color-interpolation-filters="sRGB">
<feFlood flood-opacity="0" result="BackgroundImageFix"/>
<feColorMatrix in="SourceAlpha" type="matrix" values="0 0 0 0 0 0 0 0 0 0 0 0 0 0 0 0 0 0 127 0" result="hardAlpha"/>
<feOffset dy="8"/>
<feGaussianBlur stdDeviation="4"/>
<feColorMatrix type="matrix" values="0 0 0 0 0 0 0 0 0 0 0 0 0 0 0 0 0 0 0.0568182 0"/>
<feBlend mode="normal" in2="BackgroundImageFix" result="effect1_dropShadow_1_5"/>
<feBlend mode="normal" in="SourceGraphic" in2="effect1_dropShadow_1_5" result="shape"/>
</filter>
<filter id="filter2_d_1_5" x="33" y="241" width="121" height="41" filterUnits="userSpaceOnUse" color-interpolation-filters="sRGB">
<feFlood flood-opacity="0" result="BackgroundImageFix"/>
<feColorMatrix in="SourceAlpha" type="matrix" values="0 0 0 0 0 0 0 0 0 0 0 0 0 0 0 0 0 0 127 0" result="hardAlpha"/>
<feOffset dy="8"/>
<feGaussianBlur stdDeviation="4"/>
<feColorMatrix type="matrix" values="0 0 0 0 0 0 0 0 0 0 0 0 0 0 0 0 0 0 0.0568182 0"/>
<feBlend mode="normal" in2="BackgroundImageFix" result="effect1_dropShadow_1_5"/>
<feBlend mode="normal" in="SourceGraphic" in2="effect1_dropShadow_1_5" result="shape"/>
</filter>
<linearGradient id="paint0_linear_1_5" x1="17000" y1="-18113.2" x2="17000" y2="37297.5" gradientUnits="userSpaceOnUse">
<stop stop-color="#65D09B"/>
<stop offset="1" stop-color="#4DB38E"/>
</linearGradient>
</defs>
</svg>
